<svg style="enable-background:new 0 0 65 65;" id="Layer_1" data-name="Layer 1" xml:space="preserve" xmlns="http://www.w3.org/2000/svg" viewBox="-2.5 -2.5 70 70">
    <defs>
        <!-- <style>.cls-1{fill:#010101;}</style> -->
    </defs>
    <path class="cls-1"
          d="M0,32.47A32.5,32.5,0,1,1,32.43,65,32.53,32.53,0,0,1,0,32.47ZM51.74,19.68l-.57.46L35.58,33.67a4.45,4.45,0,0,1-6.18,0L16.63,22.56l-3.35-2.9a15.42,15.42,0,0,0-.27,2q0,10.88,0,21.73a4.4,4.4,0,0,0,4.52,4.54q15,0,30,0a4.4,4.4,0,0,0,4.5-4.5q0-10.89,0-21.79A15.89,15.89,0,0,0,51.74,19.68Zm-3-2.5H16.22c.27.25.39.37.52.48L31.61,30.55c.91.79.91.78,1.83,0L48.25,17.68C48.38,17.57,48.51,17.44,48.79,17.18Z"
          style="fill-rule:evenodd;clip-rule:evenodd;"/>
</svg>